<?xml version="1.0" standalone="no"?>
<!DOCTYPE svg PUBLIC "-//W3C//DTD SVG 20010904//EN"
 "http://www.w3.org/TR/2001/REC-SVG-20010904/DTD/svg10.dtd">
<svg version="1.0" xmlns="http://www.w3.org/2000/svg"
 width="697.000000pt" height="358.000000pt" viewBox="0 0 697.000000 358.000000"
 preserveAspectRatio="xMidYMid meet">

<g transform="translate(0.000000,358.000000) scale(0.100000,-0.100000)"
fill="#000000" stroke="none">
<path d="M100 3413 c0 -3 7 -14 16 -24 43 -48 43 -38 44 -1184 0 -632 4 -1137
10 -1202 18 -207 91 -427 187 -569 77 -113 198 -220 338 -300 72 -41 126 -67
130 -62 1 2 14 39 29 83 41 119 139 283 200 334 27 23 19 28 -54 34 -170 14
-274 113 -335 316 -44 149 -46 210 -43 1376 l3 1100 28 47 c15 26 27 49 27 52
0 3 -130 6 -290 6 -160 0 -290 -3 -290 -7z"/>
<path d="M948 3363 l27 -58 0 -930 0 -930 -27 -57 -27 -58 289 0 289 0 -27 52
-27 52 -3 379 -3 380 46 -6 c111 -16 145 -84 195 -392 15 -96 50 -234 68 -270
27 -55 99 -130 153 -160 53 -28 56 -29 248 -33 l194 -5 -25 34 c-59 78 -102
209 -177 531 -68 291 -102 363 -213 448 l-44 34 61 51 c106 90 135 156 205
465 64 284 110 422 168 499 l25 34 -194 -5 c-186 -4 -196 -6 -246 -31 -97 -50
-159 -132 -187 -247 -8 -36 -26 -142 -40 -235 -14 -94 -34 -191 -45 -217 -16
-39 -17 -48 -5 -59 16 -17 8 -59 -12 -59 -7 0 -19 6 -25 13 -10 11 -19 10 -48
-5 -19 -10 -50 -18 -69 -18 l-33 0 3 378 3 378 27 52 27 52 -289 0 -289 0 27
-57z"/>
<path d="M2545 3382 c13 -20 29 -62 35 -91 14 -73 14 -1759 0 -1832 -6 -29
-22 -71 -35 -91 l-25 -38 555 0 555 0 0 227 c0 216 -1 225 -18 210 -46 -42
-81 -47 -337 -47 l-245 0 2 803 3 803 28 42 c15 23 27 44 27 47 0 3 -128 5
-285 5 l-285 0 25 -38z"/>
<path d="M3757 3368 l28 -53 6 -725 c7 -785 8 -799 63 -929 37 -87 67 -132
129 -195 114 -115 241 -161 437 -160 134 1 217 20 305 69 119 66 228 206 269
345 42 140 46 216 46 918 0 715 0 712 47 764 15 17 4 18 -281 18 l-296 0 27
-52 28 -53 3 -720 c3 -715 2 -720 -19 -788 -17 -51 -30 -75 -58 -97 -70 -58
-154 -32 -203 64 -16 32 -23 70 -29 166 -11 172 -11 1271 0 1347 5 35 19 76
30 92 12 16 21 32 21 35 0 3 -131 6 -290 6 l-290 0 27 -52z"/>
<path d="M5300 3417 c0 -2 11 -35 25 -71 l25 -66 0 -905 0 -905 -25 -66 c-14
-36 -25 -68 -25 -70 0 -2 130 -4 289 -4 l290 0 -27 48 -27 47 -3 383 -3 382
48 0 c145 -1 335 -122 442 -280 99 -145 141 -285 148 -491 5 -136 3 -154 -21
-250 -55 -213 -183 -369 -365 -443 -95 -38 -168 -49 -294 -44 -95 4 -124 10
-190 37 -105 42 -174 89 -250 171 -66 71 -121 169 -140 250 l-11 47 -45 -44
c-87 -85 -234 -171 -353 -208 l-57 -18 32 -46 c224 -321 519 -525 837 -577
100 -16 307 -18 400 -4 135 22 308 95 429 181 227 163 402 442 446 711 25 157
15 400 -24 525 -76 252 -239 474 -450 612 -51 33 -89 61 -84 61 5 0 40 29 78
64 111 101 165 233 165 404 0 255 -96 424 -288 509 -114 50 -159 55 -579 60
-216 3 -393 3 -393 0z m674 -371 c58 -29 97 -82 117 -159 16 -67 6 -186 -21
-242 -40 -82 -137 -145 -224 -145 l-26 0 0 291 0 292 52 -6 c28 -4 75 -18 102
-31z"/>
<path d="M1590 2618 c0 -14 6 -28 14 -31 23 -9 27 19 5 39 -18 16 -19 16 -19
-8z"/>
</g>
</svg>
