<?xml version="1.0" standalone="no"?>
<!DOCTYPE svg PUBLIC "-//W3C//DTD SVG 20010904//EN"
 "http://www.w3.org/TR/2001/REC-SVG-20010904/DTD/svg10.dtd">
<svg version="1.0" xmlns="http://www.w3.org/2000/svg"
 width="431.000000pt" height="360.000000pt" viewBox="0 0 431.000000 360.000000"
 preserveAspectRatio="xMidYMid meet">

<g transform="translate(0.000000,360.000000) scale(0.100000,-0.100000)"
fill="#000000" stroke="none">
<path d="M821 3353 c11 -13 15 -125 20 -592 5 -520 7 -581 23 -631 26 -79 69
-160 108 -201 30 -33 152 -119 167 -119 4 0 19 29 35 65 15 36 42 82 58 102
l30 38 -39 6 c-73 10 -121 55 -150 142 -15 46 -17 114 -21 593 -3 466 -1 547
12 578 l15 36 -136 0 c-125 0 -134 -1 -122 -17z"/>
<path d="M1206 3353 c13 -26 17 -891 5 -925 l-10 -28 130 0 130 0 -13 23 c-9
15 -13 73 -13 197 l0 175 24 -3 c52 -5 64 -30 96 -202 19 -98 38 -136 85 -167
28 -20 46 -23 121 -23 l88 0 -20 34 c-11 19 -38 105 -59 191 -41 161 -63 211
-104 239 l-24 15 37 38 c43 43 59 83 94 235 14 60 37 133 51 164 l26 56 -87
-4 c-152 -8 -181 -37 -212 -222 -12 -76 -27 -129 -38 -145 -24 -31 -72 -46
-80 -25 -11 29 2 353 15 366 6 6 12 16 12 20 0 4 -59 8 -131 8 -121 0 -131 -1
-123 -17z"/>
<path d="M1956 3353 c12 -23 12 -913 0 -935 -8 -17 7 -18 248 -18 l256 0 0 99
0 99 -37 -14 c-22 -7 -81 -13 -140 -14 l-103 0 0 384 c0 246 4 387 10 391 30
18 -1 25 -116 25 -117 0 -126 -1 -118 -17z"/>
<path d="M2516 3353 c5 -10 11 -180 15 -378 7 -409 9 -419 85 -504 61 -67 107
-84 221 -80 79 4 95 8 139 34 27 17 61 49 76 72 52 77 58 125 58 488 0 267 3
335 14 358 l15 27 -134 0 -134 0 15 -35 c11 -28 14 -97 14 -352 0 -318 -5
-377 -36 -408 -22 -22 -68 -19 -90 6 -18 20 -19 43 -22 387 -2 242 1 369 8
376 22 22 5 26 -121 26 -121 0 -131 -1 -123 -17z"/>
<path d="M3246 3349 c11 -31 12 -896 1 -926 l-8 -23 129 0 130 0 -14 41 c-11
30 -14 83 -12 197 l3 157 38 -2 c61 -4 135 -50 183 -116 60 -81 79 -142 79
-257 0 -88 -3 -101 -33 -162 -38 -77 -84 -120 -160 -148 -147 -55 -320 17
-381 160 l-22 50 -50 -40 c-28 -22 -73 -48 -100 -57 -27 -10 -49 -21 -49 -24
0 -4 21 -35 47 -70 56 -73 153 -148 243 -186 60 -25 76 -27 200 -28 l136 0 75
37 c42 21 96 55 121 78 169 148 221 410 124 615 -36 78 -124 180 -180 210 -43
23 -44 28 -11 49 13 9 37 37 52 63 25 43 28 57 28 143 0 82 -3 101 -24 137
-54 95 -111 114 -360 120 l-193 6 8 -24z m305 -155 c53 -27 74 -110 45 -177
-18 -43 -46 -67 -90 -74 l-36 -6 0 137 0 136 25 0 c15 0 40 -7 56 -16z"/>
<path d="M2525 1885 c-11 -22 -35 -50 -52 -61 l-33 -22 28 -18 c34 -22 50 -41
64 -78 l11 -29 19 36 c10 20 33 48 52 63 l34 27 -31 21 c-17 12 -40 39 -51 61
l-21 40 -20 -40z"/>
<path d="M2650 1916 c-10 -13 -10 -19 0 -32 12 -14 15 -14 29 0 14 15 14 17 0
32 -14 14 -17 14 -29 0z"/>
<path d="M2200 1873 c53 -7 55 -17 15 -62 -49 -54 -131 -107 -297 -191 -202
-103 -390 -160 -529 -160 -52 0 -62 3 -66 20 -6 23 -23 17 -23 -8 0 -9 98
-237 218 -505 l217 -489 135 5 c147 5 252 27 371 78 37 16 70 29 72 29 2 0 3
-51 3 -112 l-1 -113 95 -47 c134 -67 262 -98 431 -105 93 -4 153 -2 190 7 58
14 143 49 172 71 14 11 40 127 117 519 55 278 102 515 105 527 4 18 -3 27 -38
48 -24 14 -48 25 -53 25 -5 0 6 -9 24 -20 43 -27 31 -43 -47 -68 -46 -14 -96
-17 -291 -17 -260 0 -314 7 -481 61 -97 31 -160 69 -143 87 10 10 -106 401
-124 415 -9 6 -36 11 -61 10 -41 -1 -42 -2 -11 -5z m136 -456 l27 -24 -15
-278 c-15 -248 -18 -281 -35 -293 -56 -43 -307 -142 -423 -166 -89 -18 -109
-11 -158 57 -29 41 -132 234 -132 248 0 3 34 9 76 13 41 4 119 18 171 32 l96
25 52 -58 c29 -32 64 -64 78 -72 24 -13 30 -11 75 18 61 39 152 133 152 158 0
11 -7 5 -18 -17 -21 -39 -125 -128 -160 -137 -19 -4 -34 5 -74 43 -83 81 -106
157 -61 207 9 9 14 19 11 22 -3 3 -24 -15 -47 -41 -29 -30 -41 -52 -38 -64 4
-15 -4 -22 -42 -35 -126 -42 -264 -56 -311 -32 -126 63 192 267 611 391 106
31 131 32 165 3z m266 -419 c-31 -29 -59 -56 -62 -59 -3 -3 -15 -18 -27 -34
-21 -25 -25 -26 -52 -16 -16 7 -41 25 -56 41 -27 28 -27 30 -11 54 9 15 32 29
53 35 21 5 54 14 73 19 19 6 58 11 87 11 l52 1 -57 -52z m345 32 c322 -42 348
-60 319 -225 -20 -117 -80 -325 -114 -395 -39 -79 -71 -93 -235 -98 -75 -3
-154 0 -190 7 -68 13 -167 56 -167 73 0 5 8 7 17 4 38 -15 204 -24 275 -15
143 18 141 25 -7 31 -151 7 -331 38 -380 67 -50 28 -58 60 -63 229 -3 83 -1
152 4 152 5 0 19 -3 32 -6 19 -6 22 -11 17 -36 -6 -26 1 -37 77 -112 96 -96
173 -146 191 -126 8 9 8 11 1 7 -30 -17 -234 163 -234 205 0 34 182 238 213
238 37 0 208 -155 229 -208 6 -16 7 -16 7 1 1 17 -139 164 -194 204 l-30 22
37 0 c21 1 108 -8 195 -19z m-621 -307 c-3 -7 -43 -32 -88 -53 -97 -47 -213
-74 -260 -62 -31 8 -30 9 48 36 108 38 158 65 234 125 l65 50 3 -41 c2 -22 1
-47 -2 -55z"/>
<path d="M2259 1265 c-43 -42 -54 -57 -44 -65 9 -8 22 0 48 29 36 40 62 80 55
86 -2 2 -29 -21 -59 -50z"/>
<path d="M2095 1270 c-3 -6 1 -7 9 -4 18 7 21 14 7 14 -6 0 -13 -4 -16 -10z"/>
<path d="M2029 1223 c-13 -16 -12 -17 4 -4 16 13 21 21 13 21 -2 0 -10 -8 -17
-17z"/>
<path d="M1877 917 c-18 -28 -49 -118 -43 -124 3 -3 12 12 21 33 34 83 77 101
148 65 20 -10 37 -15 37 -9 0 12 -99 58 -126 58 -12 0 -28 -10 -37 -23z"/>
<path d="M2945 920 c3 -5 25 -10 48 -10 23 0 59 -5 79 -10 29 -8 38 -17 43
-41 8 -34 -3 -162 -16 -196 -7 -19 -5 -23 11 -23 27 0 39 28 46 102 5 56 10
67 42 96 l37 33 -32 -15 c-42 -21 -41 -21 -45 16 -3 28 -8 34 -43 44 -50 15
-179 18 -170 4z"/>
<path d="M2980 811 c0 -6 -14 -11 -31 -13 -18 -2 -38 -12 -45 -24 -13 -19 -13
-20 16 -16 16 2 30 2 30 -2 0 -3 -16 -24 -36 -46 -20 -22 -35 -43 -32 -45 2
-3 20 -7 39 -11 26 -4 30 -3 17 5 -15 10 -13 17 18 68 30 50 43 93 29 93 -3 0
-5 -4 -5 -9z"/>
<path d="M2968 643 c7 -3 16 -2 19 1 4 3 -2 6 -13 5 -11 0 -14 -3 -6 -6z"/>
<path d="M2118 1863 c6 -2 18 -2 25 0 6 3 1 5 -13 5 -14 0 -19 -2 -12 -5z"/>
<path d="M1970 1831 c-52 -15 -129 -40 -170 -56 -84 -32 -294 -135 -325 -159
-20 -16 39 9 225 96 122 57 225 96 325 124 44 13 71 23 60 23 -11 0 -63 -13
-115 -28z"/>
<path d="M1424 1584 c-18 -14 -18 -15 4 -4 12 6 22 13 22 15 0 8 -5 6 -26 -11z"/>
<path d="M2595 1500 c-72 -6 -67 -7 60 -8 139 -2 349 -16 435 -28 25 -4 43 -4
40 -1 -10 10 -227 36 -340 40 -63 2 -151 1 -195 -3z"/>
<path d="M3148 1453 c6 -2 18 -2 25 0 6 3 1 5 -13 5 -14 0 -19 -2 -12 -5z"/>
<path d="M3198 1443 c7 -3 16 -2 19 1 4 3 -2 6 -13 5 -11 0 -14 -3 -6 -6z"/>
<path d="M3238 1433 c7 -3 16 -2 19 1 4 3 -2 6 -13 5 -11 0 -14 -3 -6 -6z"/>
<path d="M3285 1420 c27 -12 43 -12 25 0 -8 5 -22 9 -30 9 -10 0 -8 -3 5 -9z"/>
<path d="M3710 990 c0 -33 4 -60 10 -60 6 0 10 27 10 60 0 33 -4 60 -10 60 -6
0 -10 -27 -10 -60z"/>
<path d="M3853 1033 c-4 -10 2 -23 18 -35 45 -34 49 -39 43 -50 -4 -7 -2 -8 4
-4 22 13 12 34 -24 55 -24 14 -34 27 -30 36 3 8 3 15 0 15 -2 0 -7 -7 -11 -17z"/>
<path d="M3916 1035 c4 -8 8 -15 10 -15 2 0 4 7 4 15 0 8 -4 15 -10 15 -5 0
-7 -7 -4 -15z"/>
<path d="M3980 1035 c0 -8 2 -15 4 -15 2 0 6 7 10 15 3 8 1 15 -4 15 -6 0 -10
-7 -10 -15z"/>
<path d="M4020 990 c0 -33 4 -60 10 -60 6 0 10 27 10 60 0 33 -4 60 -10 60 -6
0 -10 -27 -10 -60z"/>
<path d="M4148 1003 c5 -76 10 -83 11 -15 0 34 -2 62 -7 62 -4 0 -6 -21 -4
-47z"/>
<path d="M100 1036 c0 -2 7 -9 15 -16 9 -7 15 -8 15 -2 0 5 -7 12 -15 16 -8 3
-15 4 -15 2z"/>
<path d="M190 980 c0 -33 4 -60 10 -60 6 0 10 27 10 60 0 33 -4 60 -10 60 -6
0 -10 -27 -10 -60z"/>
<path d="M320 991 c0 -33 5 -53 17 -62 15 -13 15 -12 4 10 -7 13 -11 41 -9 62
2 21 0 39 -4 39 -5 0 -8 -22 -8 -49z"/>
<path d="M485 980 c0 -33 3 -60 8 -60 4 0 7 27 7 60 0 33 -3 60 -7 60 -5 0 -8
-27 -8 -60z"/>
<path d="M540 1025 c10 -12 10 -18 -1 -32 -13 -16 -12 -17 4 -4 21 17 22 37 1
45 -14 5 -15 4 -4 -9z"/>
<path d="M635 980 c0 -33 3 -60 8 -60 4 0 7 27 7 60 0 33 -3 60 -7 60 -5 0 -8
-27 -8 -60z"/>
<path d="M850 980 c0 -33 3 -60 8 -60 4 0 7 27 7 60 0 33 -3 60 -7 60 -5 0 -8
-27 -8 -60z"/>
<path d="M1096 1014 c14 -20 15 -31 6 -60 -9 -30 -8 -33 4 -23 19 15 18 74 -2
93 -23 24 -27 19 -8 -10z"/>
<path d="M4225 990 c0 -26 3 -46 8 -43 4 2 7 22 7 43 0 21 -3 41 -7 43 -5 3
-8 -17 -8 -43z"/>
<path d="M30 1011 c-15 -29 -12 -46 11 -72 l20 -24 -12 24 c-6 13 -9 39 -6 57
6 38 2 43 -13 15z"/>
<path d="M925 981 c0 -38 3 -47 13 -39 6 6 12 20 12 32 0 12 -6 30 -12 39 -11
15 -13 10 -13 -32z"/>
<path d="M1017 1013 c-10 -9 -9 -71 1 -77 4 -2 7 15 7 40 0 24 0 44 -1 44 0 0
-4 -3 -7 -7z"/>
<path d="M548 950 c-4 -24 -2 -27 9 -19 15 13 17 35 4 43 -5 3 -11 -8 -13 -24z"/>
<path d="M116 935 c-3 -8 -1 -15 4 -15 6 0 10 7 10 15 0 8 -2 15 -4 15 -2 0
-6 -7 -10 -15z"/>
<path d="M263 789 c10 -38 38 -102 43 -96 5 5 -33 108 -43 117 -3 3 -3 -7 0
-21z"/>
<path d="M320 807 c0 -13 42 -118 46 -114 5 5 -26 99 -37 112 -5 5 -9 6 -9 2z"/>
<path d="M470 750 c0 -33 4 -60 10 -60 6 0 10 27 10 60 0 33 -4 60 -10 60 -6
0 -10 -27 -10 -60z"/>
<path d="M558 753 c4 -78 12 -81 12 -5 0 34 -3 62 -8 62 -4 0 -6 -26 -4 -57z"/>
<path d="M651 748 c1 -68 6 -61 11 15 2 26 0 47 -4 47 -5 0 -7 -28 -7 -62z"/>
<path d="M747 803 c-15 -15 -4 -39 26 -59 18 -11 31 -26 30 -32 -2 -7 2 -12 7
-12 6 0 10 9 10 20 0 13 -12 26 -36 37 -25 13 -34 22 -31 35 5 19 4 22 -6 11z"/>
<path d="M890 750 c0 -35 3 -61 6 -57 7 7 7 107 0 115 -3 3 -6 -23 -6 -58z"/>
<path d="M1040 803 c1 -5 7 -19 15 -33 8 -14 14 -37 15 -52 0 -16 5 -28 10
-28 17 0 11 47 -11 84 -20 35 -29 44 -29 29z"/>
<path d="M3705 799 c-4 -6 -5 -12 -2 -15 2 -3 7 2 10 11 7 17 1 20 -8 4z"/>
<path d="M3747 792 c3 -12 -1 -30 -8 -40 -7 -9 -2 -7 11 5 23 21 23 24 8 40
-16 15 -17 15 -11 -5z"/>
<path d="M3842 798 c-13 -13 -16 -74 -4 -82 4 -2 6 11 4 30 -2 19 1 41 8 49
15 18 9 20 -8 3z"/>
<path d="M3889 797 c9 -11 12 -30 8 -52 -3 -21 -2 -33 4 -30 16 10 10 72 -8
86 -16 13 -17 12 -4 -4z"/>
<path d="M4014 779 c-1 -15 3 -26 7 -23 11 6 12 41 2 47 -5 3 -8 -8 -9 -24z"/>
<path d="M4095 799 c-4 -6 -5 -12 -2 -15 2 -3 7 2 10 11 7 17 1 20 -8 4z"/>
<path d="M4143 798 c3 -9 -2 -26 -11 -39 l-16 -24 22 19 c24 21 28 41 10 52
-7 5 -9 2 -5 -8z"/>
<path d="M3960 790 c0 -5 5 -10 10 -10 6 0 10 5 10 10 0 6 -4 10 -10 10 -5 0
-10 -4 -10 -10z"/>
<path d="M917 763 c-6 -9 50 -79 57 -72 2 2 -8 21 -24 42 -15 21 -30 34 -33
30z"/>
<path d="M4030 719 c0 -7 -14 -10 -35 -7 -19 2 -35 0 -35 -4 0 -4 18 -8 40 -8
29 0 40 4 40 15 0 8 -2 15 -5 15 -3 0 -5 -5 -5 -11z"/>
<path d="M3730 710 l-35 -7 38 -2 c20 0 37 4 37 9 0 6 -1 9 -2 9 -2 -1 -19 -5
-38 -9z"/>
<path d="M4090 708 c0 -5 16 -8 35 -8 19 0 35 3 35 8 0 4 -16 7 -35 7 -19 0
-35 -3 -35 -7z"/>
<path d="M3255 225 l-20 -20 21 -21 21 -20 19 20 c19 21 19 21 -1 41 l-20 21
-20 -21z"/>
</g>
</svg>
