<svg width="216" height="53" viewBox="0 0 216 53" fill="none" xmlns="http://www.w3.org/2000/svg">
<g clip-path="url(#clip0_142_422)">
<path d="M46.6125 41.2282H36.0951L35.5999 18.7343L26.2774 37.3936H20.066L10.7435 18.7343L10.2482 41.2282H0L1.0765 1.02841H12.5305L23.4893 22.5154L34.448 1.02841H45.6006L46.6125 41.2282Z" fill="#00B0BF"/>
<path d="M77.5294 31.738L78.6059 40.0393C77.0902 40.7225 75.4845 41.1878 73.837 41.4211C71.8816 41.7586 69.9009 41.9306 67.9163 41.9352C62.541 41.9352 58.3355 40.507 55.2997 37.6507C52.264 34.7943 50.7461 30.8668 50.7461 25.8681C50.675 23.1318 51.3047 20.4226 52.5761 17.9953C53.7635 15.8228 55.5633 14.0431 57.7541 12.8752C60.1843 11.6163 62.8951 10.9899 65.6341 11.0543C69.8432 11.0543 73.105 12.2004 75.3872 14.4712C77.6694 16.742 78.8213 19.9876 78.8213 24.1865C78.8213 24.797 78.8213 25.5682 78.8213 26.4893C78.8213 27.4105 78.7352 28.2032 78.6598 28.8459H62.6415C63.5134 32.2522 65.871 33.9446 69.5634 33.9446C71.1077 33.9404 72.6426 33.7057 74.117 33.2483C75.3302 32.9349 76.4831 32.4246 77.5294 31.738ZM65.8602 18.6058C63.8579 18.6058 62.6307 20.0947 62.3185 23.051H69.0789C69.1492 21.8966 68.8516 20.7497 68.2285 19.7734C67.9644 19.3962 67.6089 19.0914 67.1949 18.8873C66.7809 18.6832 66.3218 18.5863 65.8602 18.6058Z" fill="#00B0BF"/>
<path d="M112.344 41.2281H101.084V37.8113C100.353 39.0791 99.2836 40.1209 97.9942 40.8211C96.5598 41.5736 94.9537 41.9427 93.333 41.8922C91.2501 41.9147 89.2154 41.2687 87.5306 40.0499C85.7301 38.6662 84.3511 36.812 83.5475 34.6942C81.6241 29.3549 81.6241 23.5165 83.5475 18.1772C84.3624 16.0833 85.7404 14.2528 87.5306 12.8858C89.2154 11.667 91.2501 11.021 93.333 11.0435C94.8991 11.0223 96.4458 11.3905 97.8327 12.1146C99.0889 12.7745 100.15 13.7493 100.912 14.9425V-0.0534973H112.344V41.2281ZM93.7743 26.5429C93.6504 28.3501 94.0225 30.1569 94.8508 31.77C95.1426 32.2928 95.5705 32.7278 96.0895 33.0293C96.6085 33.3309 97.1994 33.4879 97.8004 33.4838C98.4255 33.5332 99.0515 33.4005 99.602 33.1019C100.153 32.8033 100.604 32.3517 100.901 31.8022V21.2728C100.604 20.7233 100.153 20.2717 99.602 19.9731C99.0515 19.6745 98.4255 19.5417 97.8004 19.5912C97.1994 19.5871 96.6085 19.7441 96.0895 20.0457C95.5705 20.3472 95.1426 20.7822 94.8508 21.305C94.0211 22.9214 93.649 24.7321 93.7743 26.5429Z" fill="#00B0BF"/>
<path d="M117.059 11.8254H128.341V15.2423C129.067 13.9748 130.133 12.9329 131.42 12.2325C132.854 11.4813 134.46 11.1123 136.081 11.1613C138.176 11.1257 140.225 11.7726 141.915 13.0037C143.693 14.3757 145.059 16.2057 145.866 18.2952C147.79 23.6345 147.79 29.4727 145.866 34.8121C145.071 36.9255 143.703 38.779 141.915 40.1678C140.225 41.3988 138.176 42.0458 136.081 42.0101C134.515 42.0313 132.968 41.6631 131.581 40.9389C130.325 40.2791 129.264 39.3044 128.502 38.1112V53.0322H117.059V11.8254ZM135.639 26.5322C135.757 24.7219 135.386 22.9132 134.563 21.2943C134.272 20.7659 133.842 20.3269 133.318 20.0248C132.794 19.7227 132.197 19.569 131.592 19.5805C130.965 19.5289 130.337 19.6605 129.784 19.9593C129.231 20.258 128.778 20.7108 128.481 21.2621V31.7915C128.778 32.3428 129.231 32.7956 129.784 33.0943C130.337 33.3931 130.965 33.5247 131.592 33.4731C132.197 33.4846 132.794 33.3309 133.318 33.0288C133.842 32.7267 134.272 32.2877 134.563 31.7593C135.383 30.1471 135.754 28.3461 135.639 26.5429V26.5322Z" fill="#00B0BF"/>
<path d="M166.169 41.9352C163.138 42.0503 160.132 41.347 157.471 39.9C155.213 38.6012 153.412 36.6412 152.314 34.2872C151.144 31.6966 150.566 28.8794 150.624 26.0395C150.561 23.3438 151.152 20.6727 152.347 18.2523C153.495 16.024 155.302 14.1996 157.525 13.0251C160.234 11.7658 163.189 11.1132 166.18 11.1132C169.17 11.1132 172.125 11.7658 174.835 13.0251C177.041 14.2103 178.835 16.0327 179.98 18.2523C181.175 20.6727 181.766 23.3438 181.703 26.0395C181.761 28.8794 181.183 31.6966 180.013 34.2872C178.92 36.6347 177.132 38.5933 174.888 39.9C172.22 41.3508 169.207 42.0542 166.169 41.9352ZM166.169 33.5802C166.801 33.5946 167.421 33.4154 167.947 33.0666C168.473 32.7179 168.878 32.2166 169.108 31.6308C169.808 29.8526 170.124 27.9473 170.033 26.0395C170.033 21.6621 168.745 19.4734 166.169 19.4734C163.592 19.4734 162.301 21.6621 162.293 26.0395C162.203 27.9473 162.519 29.8526 163.219 31.6308C163.449 32.2183 163.856 32.7209 164.384 33.0698C164.912 33.4187 165.535 33.5969 166.169 33.5802Z" fill="#00B0BF"/>
<path d="M200.466 41.9352C197.435 42.0476 194.43 41.3445 191.768 39.9C189.513 38.6006 187.716 36.6405 186.622 34.2872C185.451 31.6966 184.874 28.8794 184.932 26.0395C184.871 23.3452 185.458 20.6754 186.644 18.2523C187.798 16.0285 189.603 14.2057 191.822 13.0251C194.531 11.7658 197.486 11.1132 200.477 11.1132C203.467 11.1132 206.422 11.7658 209.132 13.0251C211.343 14.207 213.142 16.03 214.288 18.2523C215.474 20.6754 216.061 23.3452 216 26.0395C216.057 28.8782 215.484 31.6945 214.32 34.2872C213.224 36.6355 211.432 38.594 209.185 39.9C206.518 41.3518 203.504 42.0552 200.466 41.9352ZM200.466 33.5802C201.099 33.5953 201.722 33.4164 202.249 33.0677C202.777 32.719 203.184 32.2174 203.415 31.6308C204.116 29.8526 204.431 27.9473 204.341 26.0395C204.341 21.6621 203.049 19.4734 200.466 19.4734C197.882 19.4734 196.59 21.6621 196.59 26.0395C196.498 27.9484 196.817 29.855 197.527 31.6308C197.755 32.2174 198.16 32.7196 198.686 33.0686C199.212 33.4175 199.834 33.5962 200.466 33.5802Z" fill="#00B0BF"/>
</g>
<defs>
<clipPath id="clip0_142_422">
<rect width="216" height="53" fill="white"/>
</clipPath>
</defs>
</svg>
